P3
3 2
255
1 2 3
4 5 6
7 8 9
111 250 190
42 10 9
25 8 10


